<?xml version="1.0" encoding="UTF-8" standalone="no"?>
<!DOCTYPE svg PUBLIC "-//W3C//DTD SVG 1.1//EN" "http://www.w3.org/Graphics/SVG/1.1/DTD/svg11.dtd">
<svg width="100%" height="100%" viewBox="0 0 1799 441" version="1.1" xmlns="http://www.w3.org/2000/svg" xmlns:xlink="http://www.w3.org/1999/xlink" xml:space="preserve" xmlns:serif="http://www.serif.com/" style="fill-rule:evenodd;clip-rule:evenodd;stroke-linejoin:round;stroke-miterlimit:2;">
    <g transform="matrix(1,0,0,1,-247.063,-685.752)">
        <g>
            <g transform="matrix(0.681666,0,0,0.681666,44.9229,348.773)">
                <path d="M511.771,924.811L727.003,924.811L727.003,709.579L942.236,709.579L942.236,1140.04L296.538,1140.04L296.538,709.579L511.771,709.579L511.771,924.811Z"/>
            </g>
            <g transform="matrix(0.681666,0,0,0.681666,188.885,167.557)">
                <rect x="300.578" y="760.188" width="215.233" height="215.233"/>
            </g>
            <g transform="matrix(4.13967,0,0,4.13967,-2540.63,-3285.42)">
                <path d="M815.176,1007.34L815.176,970.98L830.197,970.98C832.919,970.98 835.272,971.509 837.255,972.569C839.238,973.628 840.767,975.102 841.845,976.99C842.922,978.878 843.46,981.071 843.46,983.569C843.46,986.078 842.913,988.271 841.818,990.147C840.723,992.023 839.164,993.476 837.139,994.506C835.115,995.536 832.712,996.051 829.931,996.051L820.662,996.051L820.662,989.126L828.297,989.126C829.623,989.126 830.733,988.895 831.626,988.434C832.52,987.972 833.198,987.324 833.659,986.489C834.121,985.655 834.352,984.681 834.352,983.569C834.352,982.444 834.121,981.47 833.659,980.648C833.198,979.825 832.517,979.189 831.617,978.739C830.718,978.289 829.611,978.064 828.297,978.064L823.965,978.064L823.965,1007.34L815.176,1007.34Z" style="fill-rule:nonzero;"/>
                <rect x="847.775" y="970.98" width="8.683" height="36.364" style="fill-rule:nonzero;"/>
                <path d="M869.65,1007.81C867.91,1007.81 866.368,1007.51 865.025,1006.93C863.681,1006.34 862.622,1005.45 861.846,1004.26C861.071,1003.07 860.683,1001.58 860.683,999.779C860.683,998.264 860.95,996.986 861.482,995.944C862.015,994.903 862.749,994.056 863.684,993.405C864.619,992.754 865.696,992.26 866.916,991.923C868.135,991.585 869.437,991.357 870.822,991.239C872.373,991.097 873.621,990.946 874.568,990.786C875.515,990.626 876.205,990.396 876.637,990.094C877.069,989.792 877.285,989.363 877.285,988.806L877.285,988.718C877.285,987.806 876.971,987.102 876.344,986.605C875.717,986.108 874.87,985.859 873.805,985.859C872.657,985.859 871.733,986.108 871.035,986.605C870.337,987.102 869.893,987.788 869.703,988.664L861.696,988.38C861.932,986.723 862.545,985.241 863.533,983.933C864.522,982.625 865.883,981.595 867.617,980.843C869.351,980.091 871.437,979.716 873.876,979.716C875.616,979.716 877.22,979.92 878.688,980.328C880.156,980.737 881.434,981.328 882.523,982.104C883.612,982.879 884.455,983.829 885.053,984.953C885.651,986.078 885.95,987.362 885.95,988.806L885.95,1007.34L877.782,1007.34L877.782,1003.54L877.569,1003.54C877.084,1004.47 876.465,1005.25 875.714,1005.89C874.962,1006.53 874.08,1007.01 873.068,1007.33C872.056,1007.64 870.917,1007.81 869.65,1007.81ZM872.331,1002.12C873.266,1002.12 874.11,1001.93 874.861,1001.56C875.613,1001.18 876.214,1000.65 876.664,999.984C877.113,999.315 877.338,998.537 877.338,997.649L877.338,995.056C877.09,995.187 876.791,995.305 876.442,995.412C876.092,995.518 875.711,995.619 875.296,995.713C874.882,995.808 874.456,995.891 874.018,995.962C873.58,996.033 873.16,996.098 872.757,996.157C871.941,996.288 871.245,996.489 870.671,996.761C870.097,997.033 869.659,997.385 869.357,997.817C869.055,998.25 868.904,998.761 868.904,999.353C868.904,1000.25 869.227,1000.94 869.872,1001.41C870.517,1001.89 871.337,1002.12 872.331,1002.12Z" style="fill-rule:nonzero;"/>
                <path d="M903.972,1007.86C901.095,1007.86 898.63,1007.27 896.577,1006.08C894.523,1004.9 892.946,1003.25 891.845,1001.14C890.744,999.025 890.193,996.578 890.193,993.796C890.193,991.002 890.747,988.549 891.854,986.436C892.96,984.323 894.541,982.675 896.594,981.491C898.648,980.307 901.101,979.716 903.954,979.716C906.475,979.716 908.674,980.171 910.55,981.083C912.426,981.994 913.894,983.282 914.954,984.945C916.013,986.608 916.572,988.558 916.632,990.795L908.517,990.795C908.352,989.398 907.881,988.303 907.106,987.51C906.33,986.717 905.321,986.321 904.078,986.321C903.072,986.321 902.19,986.602 901.433,987.164C900.675,987.726 900.086,988.555 899.666,989.65C899.246,990.745 899.036,992.097 899.036,993.707C899.036,995.317 899.246,996.675 899.666,997.782C900.086,998.889 900.675,999.723 901.433,1000.29C902.19,1000.85 903.072,1001.13 904.078,1001.13C904.883,1001.13 905.596,1000.96 906.218,1000.61C906.839,1000.27 907.351,999.765 907.754,999.096C908.156,998.427 908.411,997.613 908.517,996.654L916.632,996.654C916.549,998.904 915.989,1000.87 914.954,1002.55C913.918,1004.23 912.468,1005.53 910.604,1006.47C908.739,1007.39 906.529,1007.86 903.972,1007.86Z" style="fill-rule:nonzero;"/>
                <path d="M933.837,1007.86C930.984,1007.86 928.525,1007.29 926.459,1006.16C924.394,1005.03 922.808,1003.42 921.701,1001.32C920.594,999.214 920.041,996.714 920.041,993.814C920.041,990.996 920.597,988.531 921.71,986.418C922.822,984.305 924.391,982.66 926.415,981.482C928.439,980.304 930.824,979.716 933.571,979.716C935.512,979.716 937.287,980.017 938.897,980.621C940.507,981.225 941.898,982.119 943.07,983.302C944.242,984.486 945.153,985.945 945.804,987.679C946.455,989.413 946.781,991.399 946.781,993.636L946.781,995.802L923.077,995.802L923.077,990.76L938.702,990.76C938.69,989.836 938.471,989.014 938.045,988.292C937.619,987.569 937.036,987.004 936.296,986.596C935.556,986.188 934.707,985.983 933.748,985.983C932.777,985.983 931.907,986.199 931.138,986.631C930.369,987.063 929.759,987.649 929.309,988.389C928.859,989.129 928.623,989.967 928.599,990.902L928.599,996.033C928.599,997.146 928.818,998.119 929.256,998.954C929.694,999.788 930.315,1000.44 931.12,1000.9C931.925,1001.36 932.884,1001.59 933.997,1001.59C934.766,1001.59 935.464,1001.48 936.092,1001.27C936.719,1001.06 937.258,1000.74 937.708,1000.33C938.157,999.916 938.495,999.407 938.72,998.803L946.692,999.034C946.361,1000.82 945.636,1002.38 944.517,1003.7C943.398,1005.01 941.933,1006.04 940.122,1006.77C938.311,1007.49 936.216,1007.86 933.837,1007.86Z" style="fill-rule:nonzero;"/>
                <path d="M959.92,991.789L959.92,1007.34L951.237,1007.34L951.237,970.98L959.636,970.98L959.636,985.078L959.938,985.078C960.553,983.397 961.562,982.083 962.965,981.136C964.368,980.189 966.087,979.716 968.123,979.716C970.041,979.716 971.71,980.139 973.13,980.985C974.551,981.831 975.654,983.024 976.442,984.563C977.229,986.102 977.616,987.901 977.605,989.961L977.605,1007.34L968.922,1007.34L968.922,991.665C968.934,990.15 968.555,988.966 967.786,988.114C967.016,987.262 965.933,986.836 964.536,986.836C963.625,986.836 962.823,987.034 962.131,987.43C961.438,987.827 960.899,988.392 960.515,989.126C960.13,989.86 959.932,990.748 959.92,991.789Z" style="fill-rule:nonzero;"/>
                <path d="M995.733,1007.86C992.869,1007.86 990.409,1007.27 988.356,1006.09C986.302,1004.91 984.722,1003.27 983.615,1001.16C982.508,999.043 981.955,996.589 981.955,993.796C981.955,990.99 982.508,988.531 983.615,986.418C984.722,984.305 986.302,982.66 988.356,981.482C990.409,980.304 992.869,979.716 995.733,979.716C998.598,979.716 1001.06,980.304 1003.11,981.482C1005.16,982.66 1006.75,984.305 1007.85,986.418C1008.96,988.531 1009.51,990.99 1009.51,993.796C1009.51,996.589 1008.96,999.043 1007.85,1001.16C1006.75,1003.27 1005.16,1004.91 1003.11,1006.09C1001.06,1007.27 998.598,1007.86 995.733,1007.86ZM995.786,1001.31C996.828,1001.31 997.71,1000.99 998.432,1000.35C999.154,999.708 999.707,998.821 1000.09,997.684C1000.48,996.548 1000.67,995.234 1000.67,993.743C1000.67,992.227 1000.48,990.902 1000.09,989.765C999.707,988.629 999.154,987.741 998.432,987.102C997.71,986.463 996.828,986.143 995.786,986.143C994.709,986.143 993.801,986.463 993.061,987.102C992.321,987.741 991.759,988.629 991.374,989.765C990.989,990.902 990.797,992.227 990.797,993.743C990.797,995.234 990.989,996.548 991.374,997.684C991.759,998.821 992.321,999.708 993.061,1000.35C993.801,1000.99 994.709,1001.31 995.786,1001.31Z" style="fill-rule:nonzero;"/>
                <rect x="1013.97" y="970.98" width="8.683" height="36.364" style="fill-rule:nonzero;"/>
                <path d="M1038.12,1007.73C1036.1,1007.73 1034.28,1007.21 1032.63,1006.17C1030.98,1005.13 1029.67,1003.57 1028.69,1001.48C1027.7,999.401 1027.21,996.814 1027.21,993.725C1027.21,990.517 1027.72,987.877 1028.74,985.806C1029.76,983.734 1031.09,982.201 1032.75,981.207C1034.4,980.213 1036.17,979.716 1038.08,979.716C1039.51,979.716 1040.74,979.961 1041.76,980.452C1042.77,980.944 1043.61,981.574 1044.28,982.343C1044.94,983.113 1045.44,983.912 1045.79,984.74L1045.96,984.74L1045.96,970.98L1054.65,970.98L1054.65,1007.34L1046.05,1007.34L1046.05,1002.92L1045.79,1002.92C1045.42,1003.76 1044.9,1004.55 1044.22,1005.28C1043.55,1006.02 1042.71,1006.61 1041.69,1007.06C1040.68,1007.51 1039.49,1007.73 1038.12,1007.73ZM1041.13,1000.97C1042.19,1000.97 1043.09,1000.67 1043.83,1000.07C1044.58,999.475 1045.15,998.631 1045.56,997.542C1045.96,996.453 1046.16,995.175 1046.16,993.707C1046.16,992.216 1045.96,990.931 1045.56,989.854C1045.17,988.777 1044.59,987.948 1043.84,987.368C1043.09,986.788 1042.19,986.498 1041.13,986.498C1040.06,986.498 1039.15,986.794 1038.4,987.386C1037.65,987.978 1037.09,988.812 1036.7,989.89C1036.32,990.967 1036.13,992.239 1036.13,993.707C1036.13,995.175 1036.32,996.453 1036.71,997.542C1037.1,998.631 1037.67,999.475 1038.41,1000.07C1039.15,1000.67 1040.06,1000.97 1041.13,1000.97Z" style="fill-rule:nonzero;"/>
                <path d="M1072.9,1007.86C1070.05,1007.86 1067.59,1007.29 1065.52,1006.16C1063.46,1005.03 1061.87,1003.42 1060.76,1001.32C1059.66,999.214 1059.1,996.714 1059.1,993.814C1059.1,990.996 1059.66,988.531 1060.77,986.418C1061.88,984.305 1063.45,982.66 1065.48,981.482C1067.5,980.304 1069.89,979.716 1072.63,979.716C1074.57,979.716 1076.35,980.017 1077.96,980.621C1079.57,981.225 1080.96,982.119 1082.13,983.302C1083.3,984.486 1084.22,985.945 1084.87,987.679C1085.52,989.413 1085.84,991.399 1085.84,993.636L1085.84,995.802L1062.14,995.802L1062.14,990.76L1077.76,990.76C1077.75,989.836 1077.53,989.014 1077.11,988.292C1076.68,987.569 1076.1,987.004 1075.36,986.596C1074.62,986.188 1073.77,985.983 1072.81,985.983C1071.84,985.983 1070.97,986.199 1070.2,986.631C1069.43,987.063 1068.82,987.649 1068.37,988.389C1067.92,989.129 1067.68,989.967 1067.66,990.902L1067.66,996.033C1067.66,997.146 1067.88,998.119 1068.32,998.954C1068.76,999.788 1069.38,1000.44 1070.18,1000.9C1070.99,1001.36 1071.95,1001.59 1073.06,1001.59C1073.83,1001.59 1074.53,1001.48 1075.15,1001.27C1075.78,1001.06 1076.32,1000.74 1076.77,1000.33C1077.22,999.916 1077.56,999.407 1077.78,998.803L1085.75,999.034C1085.42,1000.82 1084.7,1002.38 1083.58,1003.7C1082.46,1005.01 1081,1006.04 1079.18,1006.77C1077.37,1007.49 1075.28,1007.86 1072.9,1007.86Z" style="fill-rule:nonzero;"/>
                <path d="M1090.3,1007.34L1090.3,980.071L1098.73,980.071L1098.73,985.042L1099.02,985.042C1099.52,983.243 1100.33,981.902 1101.45,981.021C1102.58,980.139 1103.88,979.698 1105.38,979.698C1105.78,979.698 1106.19,979.724 1106.62,979.778C1107.04,979.831 1107.44,979.911 1107.81,980.017L1107.81,987.564C1107.39,987.422 1106.85,987.309 1106.18,987.226C1105.51,987.143 1104.92,987.102 1104.4,987.102C1103.37,987.102 1102.44,987.33 1101.62,987.786C1100.8,988.241 1100.15,988.875 1099.68,989.685C1099.22,990.496 1098.98,991.446 1098.98,992.535L1098.98,1007.34L1090.3,1007.34Z" style="fill-rule:nonzero;"/>
                <rect x="815.176" y="1018.46" width="8.683" height="36.364" style="fill:rgb(225,29,72);fill-rule:nonzero;"/>
                <path d="M842.093,1055.34C839.229,1055.34 836.77,1054.75 834.716,1053.58C832.662,1052.4 831.082,1050.75 829.975,1048.64C828.868,1046.53 828.315,1044.07 828.315,1041.28C828.315,1038.47 828.868,1036.02 829.975,1033.9C831.082,1031.79 832.662,1030.14 834.716,1028.97C836.77,1027.79 839.229,1027.2 842.093,1027.2C844.958,1027.2 847.417,1027.79 849.471,1028.97C851.524,1030.14 853.105,1031.79 854.212,1033.9C855.318,1036.02 855.872,1038.47 855.872,1041.28C855.872,1044.07 855.318,1046.53 854.212,1048.64C853.105,1050.75 851.524,1052.4 849.471,1053.58C847.417,1054.75 844.958,1055.34 842.093,1055.34ZM842.147,1048.79C843.188,1048.79 844.07,1048.47 844.792,1047.83C845.514,1047.19 846.068,1046.31 846.452,1045.17C846.837,1044.03 847.029,1042.72 847.029,1041.23C847.029,1039.71 846.837,1038.39 846.452,1037.25C846.068,1036.11 845.514,1035.22 844.792,1034.59C844.07,1033.95 843.188,1033.63 842.147,1033.63C841.069,1033.63 840.161,1033.95 839.421,1034.59C838.681,1035.22 838.119,1036.11 837.734,1037.25C837.35,1038.39 837.157,1039.71 837.157,1041.23C837.157,1042.72 837.35,1044.03 837.734,1045.17C838.119,1046.31 838.681,1047.19 839.421,1047.83C840.161,1048.47 841.069,1048.79 842.147,1048.79Z" style="fill:rgb(225,29,72);fill-rule:nonzero;"/>
                <path d="M873.041,1065.62C870.449,1065.62 868.23,1065.26 866.383,1064.54C864.536,1063.82 863.086,1062.83 862.033,1061.58C860.979,1060.32 860.346,1058.9 860.133,1057.31L868.354,1056.85C868.508,1057.41 868.795,1057.89 869.215,1058.31C869.635,1058.72 870.186,1059.04 870.866,1059.27C871.547,1059.49 872.349,1059.6 873.272,1059.6C874.728,1059.6 875.933,1059.25 876.886,1058.55C877.838,1057.84 878.315,1056.62 878.315,1054.86L878.315,1050.07L878.013,1050.07C877.67,1050.91 877.149,1051.66 876.451,1052.32C875.752,1052.99 874.885,1053.51 873.849,1053.89C872.814,1054.27 871.627,1054.45 870.289,1054.45C868.301,1054.45 866.481,1053.99 864.829,1053.06C863.178,1052.13 861.858,1050.69 860.87,1048.73C859.881,1046.77 859.387,1044.25 859.387,1041.16C859.387,1037.97 859.896,1035.35 860.914,1033.28C861.932,1031.22 863.267,1029.69 864.918,1028.69C866.569,1027.7 868.348,1027.2 870.254,1027.2C871.686,1027.2 872.914,1027.45 873.938,1027.94C874.962,1028.43 875.805,1029.06 876.468,1029.83C877.131,1030.6 877.634,1031.4 877.977,1032.22L878.226,1032.22L878.226,1027.56L886.873,1027.56L886.873,1054.93C886.873,1057.24 886.293,1059.19 885.133,1060.78C883.973,1062.36 882.351,1063.57 880.268,1064.39C878.185,1065.21 875.776,1065.62 873.041,1065.62ZM873.308,1048.13C874.361,1048.13 875.261,1047.86 876.007,1047.3C876.752,1046.74 877.326,1045.94 877.729,1044.9C878.131,1043.86 878.333,1042.61 878.333,1041.16C878.333,1039.68 878.134,1038.4 877.738,1037.33C877.341,1036.26 876.767,1035.43 876.015,1034.85C875.264,1034.27 874.361,1033.98 873.308,1033.98C872.231,1033.98 871.319,1034.28 870.573,1034.87C869.828,1035.46 869.262,1036.29 868.878,1037.37C868.493,1038.44 868.301,1039.7 868.301,1041.16C868.301,1042.61 868.496,1043.86 868.887,1044.9C869.277,1045.94 869.842,1046.74 870.582,1047.3C871.322,1047.86 872.231,1048.13 873.308,1048.13Z" style="fill:rgb(225,29,72);fill-rule:nonzero;"/>
                <path d="M905.126,1055.34C902.261,1055.34 899.802,1054.75 897.748,1053.58C895.695,1052.4 894.114,1050.75 893.008,1048.64C891.901,1046.53 891.348,1044.07 891.348,1041.28C891.348,1038.47 891.901,1036.02 893.008,1033.9C894.114,1031.79 895.695,1030.14 897.748,1028.97C899.802,1027.79 902.261,1027.2 905.126,1027.2C907.991,1027.2 910.45,1027.79 912.503,1028.97C914.557,1030.14 916.137,1031.79 917.244,1033.9C918.351,1036.02 918.904,1038.47 918.904,1041.28C918.904,1044.07 918.351,1046.53 917.244,1048.64C916.137,1050.75 914.557,1052.4 912.503,1053.58C910.45,1054.75 907.991,1055.34 905.126,1055.34ZM905.179,1048.79C906.221,1048.79 907.103,1048.47 907.825,1047.83C908.547,1047.19 909.1,1046.31 909.485,1045.17C909.87,1044.03 910.062,1042.72 910.062,1041.23C910.062,1039.71 909.87,1038.39 909.485,1037.25C909.1,1036.11 908.547,1035.22 907.825,1034.59C907.103,1033.95 906.221,1033.63 905.179,1033.63C904.102,1033.63 903.194,1033.95 902.454,1034.59C901.714,1035.22 901.152,1036.11 900.767,1037.25C900.382,1038.39 900.19,1039.71 900.19,1041.23C900.19,1042.72 900.382,1044.03 900.767,1045.17C901.152,1046.31 901.714,1047.19 902.454,1047.83C903.194,1048.47 904.102,1048.79 905.179,1048.79Z" style="fill:rgb(225,29,72);fill-rule:nonzero;"/>
            </g>
        </g>
    </g>
</svg>
